<?xml version="1.0" encoding="UTF-8"?>
<svg height="160pt" viewBox="0 0 209 160" width="209pt" xmlns="http://www.w3.org/2000/svg">
 <metadata/>
 <path d="m85.29 142.98h11.75v2.63h-11.75z" opacity=".99"/>
 <path d="m129.63 73.648c5.88-.57 11.544.513 17.454.323 1.2.2 4.9155.816 5.7355 1.986.48 2.57-1.1993 6.7958-1.7793 9.3158-2.76 11.81-5.0702 23.19-7.7902 35.01-.33 1.96-2.986 4.3598-5.186 4.0798-6.61-.03-13.823-.0665-20.423-.4165-1.96-.76-2.026-4.6593-1.906-6.1893 2.86-12.66 6.3198-25.433 9.1798-38.093.29-1.86 2.9158-5.2658 4.7158-6.0158z" fill="#ffc81f"/>
 <path d="m41.615 126.44c-.38492.41312-2.075-.12705-2.075-.52006 0-.39302 1.9981-9.4292 4.4403-20.08 11.939-52.069 15.347-67.148 15.347-67.901 0-.45083-.14359-1.0888-.3191-1.4177-.76456-1.4328-.82626-1.4364-24.29-1.4364-12.084 0-22.596-.08607-23.362-.19126l-1.391-.189.192-2.253c.29209-3.4318.92415-6.9068 2.3359-12.843.7069-2.9722 1.5742-6.6951 1.9273-8.2733.67773-3.029 1.4806-4.5824 2.6842-5.1932.95148-.48286 124.92-.55768 125.81-.07593 1.2836.68898 1.2677 1.1438-.28331 8.0672-4.0516 18.086-4.4834 19.549-6.0315 20.438-.48657.27946-6.331.40166-24.612.51458-23.734.14661-23.982.15428-24.808.76671-.45848.34024-1.1241 1.14-1.4791 1.7771-.5872 1.0539-4.6302 18.307-17.784 75.889-1.6791 7.3507-2.7125 11.557-3.097 12.181-1.1716 1.9013-12.975 1.2497-13.777 1.1625l-8.9205-.96984z" fill="#0541a2" opacity=".99" stroke="#000" stroke-width=".296"/>
 <path d="m13.01 9.04c.67-3.73 3.96-7.19 7.95-6.94 39.36-.03 78.72-.01 118.09-.01 3.76-.44 7.07 3.11 6.55 6.82-1.26 7.48-3.29 14.8-4.88 22.21-.59 3.81-3.79 7.39-7.81 7.44-14.73.09-29.47.01-44.21.04-6.66 27.74-12.7 55.63-19.37 83.37-.65 3.34-3.75 6.27-7.28 5.99-6.7-.01-13.4.07-20.1-.04-3.73-.01-5.88-4.58-4.86-7.81 6.12-27.2 12.5-54.34 18.73-81.51h-40.87c-2.76.18-5.72-1.33-6.65-4.03-.66-2.81.1-5.69.72-8.44 1.4-5.68 2.63-11.4 3.99-17.09m2.93 2.94c-1.36 7.41-4.21 14.62-4 22.24 1.68.31 3.37.54 5.08.52 12.99-.07 25.98-.04 38.98-.03 1.9-.34 4.34 1.09 3.65 3.29-6.31 27.69-12.74 55.36-19.06 83.05-.45 1.32.02 3.51 1.77 3.43 6.5.18 13.01.07 19.51.05 2.54.2 3.96-2.41 4.25-4.59 6.11-26.7 12.23-53.4 18.4-80.09.39-2.33 1.69-5.13 4.47-5.08 14.64-.22 29.31.08 43.96-.12 2.49.03 3.93-2.39 4.22-4.59 1.55-7.37 3.6-14.66 4.94-22.07.05-1.76-1.6-2.17-3.02-2-39.74.06-79.47-.06-119.2.05-3.03.04-3.36 3.71-3.95 5.94z"/>
 <path d="m79.512 124.14c-.37816-.43218-.71786.8144-.71786.3439 0-.71549 13.188-63.245 15.16-71.881.34729-1.5207.9253-3.2287 1.2845-3.7957 1.4732-2.3255-.22017-2.2484 49.286-2.2444 25.199.0017 46.797.12566 47.997.2747l2.1811.27096 1.142 2.6973c-.002 1.5623-1.5859 5.1107-2.1187 7.7104-2.7781 13.556-14.071 65.479-14.465 66.509-.25176.65793-.92501 1.5764-1.4961 2.041-.97144.79045-1.6445-.55734-11.667.11617l-10.65-.42862-.90388.0349c-.66606-1.0514-2.387-1.4731-1.749-4.5475.37452-1.8051 1.4513-13.491 4.3187-27.195s4.2108-24.734 6.073-26.104c.52623-.38698-.83088-2.4768-.83088-2.4768-1.1498.19223 1.0515-1.2891-20.726-1.2875-21.114.0017-20.824.76181-22.034 1.5248-.70369.44382-1.9239 2.9373-2.1864 3.6152-.51908 1.3405-1.4018 7.7989-5.6509 28.446-3.9992 19.433-7.5748 25.798-8.1347 26.928-1.0162 2.0508-1.9255.16187-13.027.16187-9.4919 0-8.2418 1.3107-8.8728.58963z" fill="#0541a2" opacity=".99"/>
 <path d="m92.42 49.05c1.14-3.5 4.95-5.76 8.57-5.49 30 .01 60.01 0 90.02 0 2.64-.2 5.42 1.14 6.62 3.56.6 2.98.11 6.05-.57 8.98-5.06 21.8-9.63 43.72-14.72 65.51-1.08 2.97-4.12 5.19-7.31 5.18-6.32.04-12.65.07-18.98-.01-3.92.11-6.8-4.22-5.78-7.88 3.46-17.08 7.4-34.07 11-51.12-13.49.03-26.98-.02-40.47.03-4.07 17.52-7.55 35.17-11.54 52.7-.83 3.28-3.74 6.24-7.26 6.26-6.36.09-12.73.06-19.09.02-3.86.15-7.16-3.98-6.13-7.72 5.27-23.33 10.39-46.7 15.64-70.02m2.17 7.01c-4.65 21.36-9.52 42.68-14.16 64.04-.57 1.63.97 3.34 2.6 3.23 6.01.16 12.02.07 18.03.04 2.11.14 4.19-1.41 4.59-3.5 4.02-17.25 7.36-34.66 11.35-51.92.37-2.33 2.57-4.15 4.96-3.8 13.37.01 26.75-.04 40.13.02 2.17-.4 3.92 1.82 2.98 3.85-3.68 16.98-7.24 33.99-11.04 50.94-.73 1.63-.11 4.17 1.95 4.31 6.34.27 12.71.13 19.06.07 2.42.09 3.97-2.19 4.3-4.36 4.78-20.56 9.04-41.24 13.85-61.8.77-3.1.86-6.3.89-9.48-2.67-.56-5.41-.55-8.13-.48-28.68.07-57.36-.07-86.04.07-4.42.17-4.6 5.52-5.32 8.77z"/>
 <path d="m128.49 72.63c6.99-.92 14.18-.29 21.25-.34 3.5.31 6.23 4.26 5.24 7.65-3.12 13.68-6.15 27.39-9.51 41.02-.8 3.31-4.02 5.84-7.42 5.83-6.02.06-12.04.05-18.06 0-4.01.25-7.17-4.09-6.03-7.86 2.78-13.36 6.28-26.56 9.07-39.92.5-2.92 2.71-5.36 5.46-6.38m.85 2.88c-1.8.75-2.85 2.58-3.14 4.44-2.86 12.66-5.89 25.29-8.75 37.95-.12 1.53-1.2 4.14.76 4.9 6.6.35 13.24.1 19.85.13 2.2.28 3.71-1.69 4.04-3.65 2.72-11.82 5.46-23.63 8.22-35.44.58-2.52.97-5.17.49-7.74-.82-1.17-2.53-.64-3.73-.84-5.91.19-11.86-.32-17.74.25z"/>
 <path d="m44.26 133.57c4.72.2 9.65-.75 14.23.69 4 1.09 5.85 7.07 2.38 9.75-3.34 2.4-7.72 1.49-11.57 1.7.02 2.85.02 5.71.02 8.58-1.68 0-3.36 0-5.05-.01.03-6.91.04-13.81-.01-20.71m5.04 1.04c.02 3.1.01 6.2.03 9.3 2.56-.28 5.92.65 7.69-1.82 1.42-1.58 1.05-4.17-.43-5.57-1.77-2.17-4.81-1.81-7.29-1.91z"/>
 <path d="m101.24 133.56c1.78-.01 3.55-.02 5.33-.02 2.73 4.54 4.62 9.59 7.81 13.86 2.28-4.58 4.51-9.17 6.72-13.78 1.73-.05 3.46-.07 5.19-.09-.05 6.92-.03 13.83-.01 20.75-1.68 0-3.37.01-5.05.01.01-5.28.03-10.55.02-15.82-3 5.39-5.66 10.95-8.53 16.41-3.29-5.39-6.03-11.1-9.27-16.53-.15 5.32-.02 10.63-.06 15.95-.53-.01-1.61-.02-2.14-.03.02-6.9.03-13.81-.01-20.71z"/>
 <path d="m136.38 133.62c5.02-1.09 11.04-.71 14.76 3.25 3.56 3.41 4.15 9.42 1.07 13.31-6.19 6.67-19.45 6.09-23.59-2.55-2.9-5.92 1.84-12.67 7.76-14.01m1 1.87c-4.8 2.48-4.64 9.43-2.73 13.76 1.64 4.36 7.59 4.99 11.03 2.5 4.16-4.28 4.16-12.15-.61-16.01-2.3-1.43-5.29-1.41-7.69-.25z"/>
 <path d="m163.46 133.65c5.01-1.1 11.03-.8 14.79 3.12 3.48 3.22 4.37 9.07 1.54 12.96-6.1 7.38-20.54 6.62-24.23-2.8-2.2-5.8 2.26-11.88 7.9-13.28m1.75 1.59c-5.37 2.06-5.38 9.47-3.39 13.95 1.75 4.83 8.91 5.22 12.03 1.67 2.52-4.05 2.91-9.74-.04-13.67-1.95-2.58-5.71-3.15-8.6-1.95z"/>
 <path d="m201.41 133.15c.38.19 1.14.58 1.52.77.18 6.84.03 13.69.06 20.53-2.15-.32-3.49-2.08-4.92-3.5-4.11-4.38-8.49-8.5-12.63-12.85 0 5.38.02 10.75 0 16.13-.56-.01-1.68-.02-2.23-.03-.03-6.88.04-13.77-.04-20.65 1.55-.01 3.11.02 4.66.08 4.34 4.75 8.96 9.23 13.5 13.79.02-4.76-.14-9.52.08-14.27z"/>
 <path d="m2.23 133.55c5.38-.01 10.76.01 16.14-.01l-.03 1.61c-1.77 0-3.53.01-5.3.03.02 6.38.24 12.77-.12 19.14-1.7-.02-3.39-.04-5.08-.07.01-6.36-.01-12.73.01-19.1-1.86 0-3.72 0-5.58.01z"/>
 <path d="m19.02 133.58c1.99-.03 3.98-.03 5.97-.03 2.27 2.66 4.57 5.29 6.75 8.02 2.21-2.67 4.43-5.32 6.62-8.01.83.01 2.48.01 3.31.02-2.31 2.72-4.53 5.54-6.82 8.28-3.57 3.21-1.22 8.35-2.02 12.49-1.54-.04-3.07-.06-4.61-.08 0-3.2 0-6.4.04-9.59-3.16-3.64-6.1-7.45-9.24-11.1z"/>
 <path d="m66.45 133.55c5.17.01 10.33-.04 15.5.02l-.1 1.59c-3.45-.01-6.9-.01-10.34-.01 0 2.54 0 5.08-.01 7.63 3.31.01 6.61 0 9.92 0l-.05 1.45c-3.29-.01-6.58-.01-9.87-.01.01 2.84.01 5.68 0 8.52 3.64 0 7.29-.08 10.92.1l-.94 1.35c-5 .28-10.01-.01-15.01.1 0-6.91.02-13.83-.02-20.74z"/>
</svg>
